Simulation
nRows=35
nColumns=15
endheader
time  TH_x TH_y TH_z SC_y  SC_z  SC_x  AC_y  AC_z  AC_x  GH_y  GH_z  GH_yy  EL_x  PS_y
1.4  0.000000  0.000000  0.000000  -43.948772372402814  10.417449480629003  26.59890154098946  69.04867001079376  11.228631648982535  -1.2395455705533494  -24.37461584061561  61.14631883335991  27.701185076898195  6.365702670842827  120.000000
1.428  0.000000  0.000000  0.000000  -44.13813302884739  10.580971868928575  27.077157206269217  69.09049936264005  11.084866120038456  -1.068653258023681  -24.305777948931922  61.335296189832135  27.69518766188003  6.339449485375634  120.000000
1.456  0.000000  0.000000  0.000000  -44.28512899047502  10.716420266994163  27.494697873074188  69.13107667763012  10.932484445870333  -0.9326835323054309  -24.255628278269594  61.46705037088707  27.6906206385185  6.3381097850855905  120.000000
1.4839999999999998  0.000000  0.000000  0.000000  -44.39145656543121  10.823882447545072  27.849826501816487  69.16907177577966  10.773662308172378  -0.8340615410742523  -24.22118544811751  61.54759976845967  27.69058224862207  6.3526328882720975  120.000000
1.5119999999999998  0.000000  0.000000  0.000000  -44.45823695929482  10.90315064027762  28.141539046633692  69.20341763855257  10.61127235791644  -0.7740676379952237  -24.19946928307915  61.58331217988583  27.696271371834136  6.375226823828009  120.000000
1.5399999999999998  0.000000  0.000000  0.000000  -44.488836267230624  10.954456131801694  28.37171156189982  69.23332509773566  10.448789556585389  -0.7528524386964074  -24.18772170083814  61.580362919942964  27.706931525896763  6.399903720794345  120.000000
1.5679999999999998  0.000000  0.000000  0.000000  -44.485647422374726  10.977805797970113  28.5427844226075  69.25829798813749  10.289809881383386  -0.7694988492127389  -24.18348125317586  61.5446973347719  27.72015913888186  6.422470659028607  120.000000
1.5959999999999999  0.000000  0.000000  0.000000  -44.45291288705976  10.973811963477932  28.659508410494805  69.27813045005388  10.137753675039958  -0.8223230913101304  -24.18458818412951  61.48133732130017  27.73282123934665  6.44018968350145  120.000000
1.6239999999999999  0.000000  0.000000  0.000000  -44.39347730678447  10.943051388047214  28.726223303387805  69.29275350980224  9.99533704278339  -0.9090475438687641  -24.1890881068573  61.39439554653557  27.741761423022897  6.451562628023721  120.000000
1.652  0.000000  0.000000  0.000000  -44.31159726354163  10.886859569302526  28.74854890893265  69.30226832455554  9.864492624724072  -1.0271140461181922  -24.19534264011277  61.28639602674104  27.74460745723083  6.456146200469085  120.000000
1.6799999999999997  0.000000  0.000000  0.000000  -44.20969015878759  10.806503659110055  28.730819393981683  69.30683528633112  9.746180775773471  -1.1737704552941814  -24.201935135314574  61.15839210606634  27.74000426889069  6.454486899011457  120.000000
1.7079999999999997  0.000000  0.000000  0.000000  -44.091080460144184  10.703865179331668  28.67785547029457  69.30686185873033  9.640543598644623  -1.3462517368841416  -24.207810604463294  61.00962662735624  27.727552225235506  6.4478919232102925  120.000000
1.7359999999999998  0.000000  0.000000  0.000000  -43.956754520810776  10.580508147744608  28.592716743008285  69.30300046040381  9.54687895467126  -1.5417083317510287  -24.21218623026749  60.8378434905772  27.707456711605825  6.438227951202481  120.000000
1.7639999999999998  0.000000  0.000000  0.000000  -43.80808494822821  10.438412112892689  28.478531534742483  69.29638975965577  9.463628202088989  -1.7572817384707442  -24.214703661276715  60.63943324090606  27.68000120820148  6.427631593273946  120.000000
1.7919999999999998  0.000000  0.000000  0.000000  -43.64385695557111  10.279218180091997  28.336195726302744  69.28858718195765  9.388490795036194  -1.9897917837750128  -24.215328438107715  60.40988585770317  27.645362913273352  6.418321506451735  120.000000
1.8199999999999998  0.000000  0.000000  0.000000  -43.46321889344337  10.105012845002953  28.166067734256465  69.28158024792532  9.318560136816798  -2.235759424153867  -24.21447511525691  60.144193163275986  27.603375826738432  6.412417320456904  120.000000
1.8479999999999999  0.000000  0.000000  0.000000  -43.263306839360794  9.917624723661282  27.96624494374567  69.27753602436437  9.250541414213144  -2.491192492544408  -24.21279278302385  59.83706815414182  27.554037265504515  6.411865207581923  120.000000
1.876  0.000000  0.000000  0.000000  -43.042573014067315  9.719408669842414  27.73467419331471  69.27845940316699  9.180906782194628  -2.7519685347729177  -24.211126743520296  59.48320317812674  27.49788022795266  6.418500923066064  120.000000
1.904  0.000000  0.000000  0.000000  -42.798690011051114  9.512532751181991  27.46776615184059  69.28569844842764  9.106174578865604  -3.0139073428163368  -24.21031353601454  59.07715486737316  27.436942906004802  6.434041112524901  120.000000
1.9319999999999997  0.000000  0.000000  0.000000  -42.531869029847925  9.299720784747667  27.162625469221652  69.29939806091022  9.02301045617238  -3.2732147237911287  -24.21097649948885  58.613531807755585  27.375079037856256  6.460141164467825  120.000000
1.9599999999999997  0.000000  0.000000  0.000000  -42.24230028009633  9.083472877062531  26.815707534859552  69.31826267231446  8.928601519861973  -3.5266828416603873  -24.213406127988414  58.08714310688441  27.31840023065078  6.498526595358014  120.000000
1.9879999999999998  0.000000  0.000000  0.000000  -41.93290722669126  8.866655831404486  26.424957342164667  69.33955139502496  8.820915525081904  -3.771709608334703  -24.21746728535974  57.49329200789839  27.27453515049683  6.550881625910817  120.000000
2.016  0.000000  0.000000  0.000000  -41.60617457231129  8.651496266858148  25.988214270012246  69.35960370322142  8.698894126938326  -4.0063052838699695  -24.22287041710378  56.82809975860926  27.25169802194447  6.618855910832484  120.000000
2.0439999999999996  0.000000  0.000000  0.000000  -41.266505575542936  8.439865870592921  25.50558124231884  69.3743643748716  8.562098460122387  -4.229257736640863  -24.229437300666635  56.08854126545553  27.25715591187825  6.703902932562048  120.000000
2.0719999999999996  0.000000  0.000000  0.000000  -40.91708132077786  8.232206636839928  24.977702709541436  69.38020140290809  8.410585255484406  -4.440138918585104  -24.237508074817235  55.27261066793232  27.29587708451836  6.807137396546456  120.000000
2.0999999999999996  0.000000  0.000000  0.000000  -40.562327588980075  8.02787753557759  24.40748348648026  69.37436422205062  8.245051155743969  -4.639308566290362  -24.247951933201534  54.37939167458942  27.36974855720384  6.92940867326296  120.000000
2.1279999999999997  0.000000  0.000000  0.000000  -40.20505479846258  7.824672496803961  23.79801647427218  69.3555290517114  8.066688830143915  -4.827744076845137  -24.261933703597432  53.40947438623739  27.477513845789428  7.071275715950551  120.000000
2.1559999999999997  0.000000  0.000000  0.000000  -39.84899708147685  7.619758327486027  23.15399783521628  69.32353676306472  7.87699571286755  -5.006695318757985  -24.280394488204756  52.36513191306367  27.615935663656362  7.232907528704022  120.000000
2.1839999999999997  0.000000  0.000000  0.000000  -39.49565342943535  7.409748554077294  22.479432595609214  69.27915517402411  7.677193040302495  -5.177626151679902  -24.3038098524077  51.25053955402767  27.781606987428713  7.413717942224595  120.000000
2.2119999999999997  0.000000  0.000000  0.000000  -39.146847409557715  7.191858450165773  21.7787103895223  69.22318083618745  7.46762933636282  -5.341633691762356  -24.331941603974403  50.07172666332013  27.973397483483733  7.6122458864854705  120.000000
2.2399999999999998  0.000000  0.000000  0.000000  -38.80173061517194  6.963913269146013  21.054277682756023  69.15589661536832  7.247486782580305  -5.499296531776572  -24.363777538258834  48.83649738556291  28.194088395533022  7.825809563790469  120.000000
2.268  0.000000  0.000000  0.000000  -38.45900471456456  6.725076162664609  20.308332204689425  69.07639177915974  7.014763729936747  -5.650419680922726  -24.397689992549086  47.55438016190981  28.451625997051618  8.050306771791876  120.000000
2.296  0.000000  0.000000  0.000000  -38.114486324761806  6.47534402580424  19.541751846922065  68.98286291041394  6.7666745485727  -5.794146320287975  -24.4315528418166  46.23644655849714  28.7583359468157  8.280729667509677  120.000000
2.324  0.000000  0.000000  0.000000  -37.763937322355055  6.2157851199892775  18.75617744505329  68.87251182376872  6.500432526654749  -5.928955101113338  -24.462907028286732  44.89503312334507  29.12962328143976  8.511846499512908  120.000000
2.352  0.000000  0.000000  0.000000  -37.40101054631337  5.947644497928344  17.953200351906286  68.7422602438349  6.213931795081052  -6.053449259559283  -24.48927730252505  43.54323854552022  29.581574734087067  8.738993234285328  120.000000
